<svg width="25" height="197" viewBox="0 0 25 197" fill="none" xmlns="http://www.w3.org/2000/svg">
<path d="M14.5732 1.875L7.49805 2.02881L7.49805 0.2417L14.5732 0.388184V1.875ZM18.2354 1.12793C18.2354 1.46973 18.1353 1.74561 17.9351 1.95557C17.7349 2.16064 17.4712 2.26318 17.144 2.26318C16.812 2.26318 16.5459 2.16064 16.3457 1.95557C16.1406 1.74561 16.0381 1.46973 16.0381 1.12793C16.0381 0.791016 16.1406 0.52002 16.3457 0.314941C16.5459 0.10498 16.812 1.45135e-08 17.144 0C17.4712 -1.43001e-08 17.7349 0.10498 17.9351 0.314941C18.1353 0.520019 18.2354 0.791016 18.2354 1.12793Z" fill="white"/>
<path d="M18.2061 8.96484C18.2061 9.62891 18.04 10.21 17.708 10.708C17.3711 11.2012 16.895 11.5845 16.2798 11.8579C15.6646 12.1265 14.9395 12.2607 14.1045 12.2607H14.0898C13.25 12.2607 12.5225 12.1265 11.9072 11.8579C11.292 11.5894 10.8184 11.2085 10.4863 10.7153C10.1494 10.2222 9.98096 9.63867 9.98096 8.96484C9.98096 8.59863 10.0396 8.25684 10.1567 7.93945C10.269 7.62207 10.4302 7.34131 10.6401 7.09717C10.8452 6.85303 11.0918 6.66016 11.3799 6.51855V6.40137L7 6.40137L7 4.80469L18.0742 4.80469V6.40137H16.8218V6.51855C17.1099 6.6748 17.3589 6.87256 17.5688 7.11182C17.7739 7.35107 17.9326 7.62695 18.0449 7.93945C18.1523 8.25195 18.2061 8.59375 18.2061 8.96484ZM16.8438 8.51074C16.8437 8.07129 16.7339 7.69043 16.5142 7.36816C16.2944 7.0459 15.9795 6.79932 15.5693 6.62842C15.1543 6.45752 14.666 6.37207 14.1045 6.37207H14.0898C13.5234 6.37207 13.0352 6.45996 12.625 6.63574C12.2148 6.80664 11.8999 7.05322 11.6802 7.37549C11.4556 7.69287 11.3433 8.07129 11.3433 8.51074C11.3433 8.9502 11.4556 9.33105 11.6802 9.65332C11.8999 9.9707 12.2148 10.2148 12.625 10.3857C13.0303 10.5518 13.5186 10.6348 14.0898 10.6348H14.1045C14.6709 10.6348 15.1592 10.5518 15.5693 10.3857C15.9795 10.2148 16.2944 9.9707 16.5142 9.65332C16.7339 9.33105 16.8438 8.95019 16.8438 8.51074Z" fill="white"/>
<path d="M18.0742 17.6807H10.1201V16.0913H11.3213V15.9668C10.8965 15.8252 10.5669 15.5762 10.3325 15.2197C10.0981 14.8584 9.98096 14.4141 9.98096 13.8867C9.98096 13.7549 9.98828 13.6255 10.0029 13.4985C10.0176 13.3716 10.0347 13.269 10.0542 13.1909H11.519C11.4897 13.3325 11.4678 13.4741 11.4531 13.6157C11.4385 13.7524 11.4312 13.8965 11.4312 14.0479C11.4312 14.4531 11.5093 14.8096 11.6655 15.1172C11.8218 15.4199 12.0415 15.6592 12.3247 15.835C12.603 16.0059 12.9351 16.0913 13.3208 16.0913H18.0742V17.6807Z" fill="white"/>
<path d="M18.2061 23.9795C18.2061 24.4824 18.1108 24.9341 17.9204 25.3345C17.7251 25.73 17.4492 26.0425 17.0928 26.272C16.7363 26.5015 16.3188 26.6162 15.8403 26.6162H15.8257C15.3472 26.6162 14.9395 26.5015 14.6025 26.272C14.2656 26.0376 14.002 25.7007 13.8115 25.2612C13.6162 24.8169 13.499 24.2798 13.46 23.6499L13.2842 20.7129H14.4048L14.5806 23.4302C14.6147 23.9771 14.7319 24.3799 14.9321 24.6387C15.1274 24.8975 15.4033 25.0269 15.7598 25.0269H15.7744C16.1357 25.0269 16.4214 24.8877 16.6313 24.6094C16.8364 24.3311 16.939 23.9795 16.939 23.5547C16.939 23.1592 16.8608 22.8076 16.7046 22.5C16.5435 22.1875 16.3286 21.9434 16.0601 21.7676C15.7866 21.5918 15.479 21.5039 15.1372 21.5039H12.6323C12.1929 21.5039 11.8584 21.6406 11.6289 21.9141C11.3945 22.1826 11.2773 22.583 11.2773 23.1152C11.2773 23.5596 11.3555 23.9233 11.5117 24.2065C11.668 24.4849 11.8877 24.6704 12.1709 24.7632L12.1929 24.7778V26.3086L12.1416 26.3013C11.7021 26.2378 11.3213 26.0645 10.999 25.7812C10.6719 25.4932 10.418 25.1172 10.2373 24.6533C10.0566 24.1846 9.96631 23.6499 9.96631 23.0493C9.96631 22.3804 10.0737 21.814 10.2886 21.3501C10.4985 20.8813 10.8037 20.5273 11.2041 20.2881C11.5996 20.0439 12.0757 19.9219 12.6323 19.9219H18.0742V21.5039H16.9463V21.6211C17.2148 21.7773 17.4443 21.9727 17.6348 22.207C17.8203 22.4414 17.9619 22.7075 18.0596 23.0054C18.1572 23.3032 18.2061 23.6279 18.2061 23.9795Z" fill="white"/>
<path d="M18.228 31.3696C18.228 32.1411 18.062 32.8076 17.73 33.3691C17.3931 33.9258 16.9146 34.3555 16.2944 34.6582C15.6743 34.9609 14.9346 35.1123 14.0752 35.1123H14.0605C13.2158 35.1123 12.4883 34.9634 11.8779 34.6655C11.2676 34.3628 10.7964 33.9331 10.4644 33.3765C10.1323 32.8149 9.96631 32.1484 9.96631 31.377C9.96631 30.708 10.0835 30.1343 10.3179 29.6558C10.5474 29.1724 10.8647 28.7891 11.27 28.5059C11.6704 28.2178 12.127 28.0371 12.6396 27.9639L12.6763 27.9565V29.4873L12.6616 29.4946C12.271 29.5825 11.9463 29.7852 11.6875 30.1025C11.4238 30.4199 11.292 30.8423 11.292 31.3696C11.292 31.8091 11.4043 32.1875 11.6289 32.5049C11.8486 32.8223 12.166 33.0664 12.5811 33.2373C12.9961 33.4033 13.4893 33.4863 14.0605 33.4863H14.0752C14.6611 33.4863 15.1641 33.4009 15.584 33.23C16.0039 33.0591 16.3286 32.8149 16.5581 32.4976C16.7827 32.1802 16.895 31.8042 16.895 31.3696C16.895 30.8716 16.7852 30.4688 16.5654 30.1611C16.3457 29.8486 16.021 29.6289 15.5913 29.502L15.5547 29.4873L15.5474 27.9639L15.6133 27.9785C16.1309 28.0713 16.585 28.2593 16.9756 28.5425C17.3662 28.8257 17.6738 29.2041 17.8984 29.6777C18.1182 30.1465 18.228 30.7104 18.228 31.3696Z" fill="white"/>
<path d="M14.5439 41.8872H13.0864V36.9873H14.5439V41.8872Z" fill="white"/>
<path d="M18.228 47.2559C18.228 48.0322 18.062 48.6987 17.73 49.2554C17.3931 49.812 16.917 50.2417 16.3018 50.5444C15.6865 50.8423 14.959 50.9912 14.1191 50.9912H14.1118C13.2817 50.9912 12.5566 50.8423 11.9365 50.5444C11.3164 50.2417 10.833 49.8169 10.4863 49.27C10.1396 48.7183 9.96631 48.0737 9.96631 47.3364C9.96631 46.5942 10.1323 45.957 10.4644 45.4248C10.7964 44.8877 11.2627 44.4751 11.8633 44.187C12.459 43.8989 13.1572 43.7549 13.958 43.7549H14.5146V50.1855H13.3794V44.5459L14.4341 45.3076H13.7969C13.2305 45.3076 12.7617 45.3955 12.3906 45.5713C12.0146 45.7422 11.7339 45.979 11.5483 46.2817C11.3628 46.5845 11.27 46.9336 11.27 47.3291C11.27 47.7246 11.3677 48.0786 11.563 48.3911C11.7534 48.6987 12.0366 48.9429 12.4126 49.1235C12.7886 49.2993 13.25 49.3872 13.7969 49.3872H14.4341C14.9565 49.3872 15.4033 49.2993 15.7744 49.1235C16.1455 48.9478 16.4287 48.6987 16.624 48.3765C16.8193 48.0493 16.917 47.6636 16.917 47.2192C16.917 46.8774 16.8706 46.5845 16.7778 46.3403C16.6802 46.0913 16.5605 45.8887 16.4189 45.7324C16.2773 45.5713 16.1382 45.4614 16.0015 45.4028L15.9429 45.3735V43.8354L16.0088 43.8501C16.2725 43.9185 16.5361 44.0381 16.7998 44.209C17.0586 44.3799 17.2954 44.6069 17.5103 44.8901C17.7251 45.1685 17.8984 45.5054 18.0303 45.9009C18.1621 46.2915 18.228 46.7432 18.228 47.2559Z" fill="white"/>
<path d="M18.0742 63.6768H10.1201V62.0874H11.3213V61.9629C10.8965 61.7676 10.5645 61.4795 10.3252 61.0986C10.0859 60.7178 9.96631 60.2368 9.96631 59.6558C9.96631 58.7622 10.2227 58.0786 10.7354 57.605C11.248 57.1313 11.978 56.8945 12.9253 56.8945H18.0742V58.4912H13.2988C12.6348 58.4912 12.1416 58.6304 11.8193 58.9087C11.4922 59.1821 11.3286 59.6118 11.3286 60.1978C11.3286 60.5835 11.4141 60.918 11.585 61.2012C11.751 61.4844 11.9902 61.7041 12.3027 61.8604C12.6104 62.0117 12.979 62.0874 13.4087 62.0874H18.0742V63.6768Z" fill="white"/>
<path d="M18.2061 69.9756C18.2061 70.4785 18.1108 70.9302 17.9204 71.3306C17.7251 71.7261 17.4492 72.0386 17.0928 72.2681C16.7363 72.4976 16.3188 72.6123 15.8403 72.6123H15.8257C15.3472 72.6123 14.9395 72.4976 14.6025 72.2681C14.2656 72.0337 14.002 71.6968 13.8115 71.2573C13.6162 70.813 13.499 70.2759 13.46 69.646L13.2842 66.709H14.4048L14.5806 69.4263C14.6147 69.9731 14.7319 70.376 14.9321 70.6348C15.1274 70.8936 15.4033 71.0229 15.7598 71.0229H15.7744C16.1357 71.0229 16.4214 70.8838 16.6313 70.6055C16.8364 70.3271 16.939 69.9756 16.939 69.5508C16.939 69.1553 16.8608 68.8037 16.7046 68.4961C16.5435 68.1836 16.3286 67.9395 16.0601 67.7637C15.7866 67.5879 15.479 67.5 15.1372 67.5H12.6323C12.1929 67.5 11.8584 67.6367 11.6289 67.9102C11.3945 68.1787 11.2773 68.5791 11.2773 69.1113C11.2773 69.5557 11.3555 69.9194 11.5117 70.2026C11.668 70.481 11.8877 70.6665 12.1709 70.7593L12.1929 70.7739V72.3047L12.1416 72.2974C11.7021 72.2339 11.3213 72.0605 10.999 71.7773C10.6719 71.4893 10.418 71.1133 10.2373 70.6494C10.0566 70.1807 9.96631 69.646 9.96631 69.0454C9.96631 68.3765 10.0737 67.8101 10.2886 67.3462C10.4985 66.8774 10.8037 66.5234 11.2041 66.2842C11.5996 66.04 12.0757 65.918 12.6323 65.918H18.0742V67.5H16.9463V67.6172C17.2148 67.7734 17.4443 67.9688 17.6348 68.2031C17.8203 68.4375 17.9619 68.7036 18.0596 69.0015C18.1572 69.2993 18.2061 69.624 18.2061 69.9756Z" fill="white"/>
<path d="M18.228 81.6357C18.228 82.4121 18.062 83.0786 17.73 83.6353C17.3931 84.1919 16.917 84.6216 16.3018 84.9243C15.6865 85.2222 14.959 85.3711 14.1191 85.3711H14.1118C13.2817 85.3711 12.5566 85.2222 11.9365 84.9243C11.3164 84.6216 10.833 84.1968 10.4863 83.6499C10.1396 83.0981 9.96631 82.4536 9.96631 81.7163C9.96631 80.9741 10.1323 80.3369 10.4644 79.8047C10.7964 79.2676 11.2627 78.855 11.8633 78.5669C12.459 78.2788 13.1572 78.1348 13.958 78.1348H14.5146V84.5654H13.3794V78.9258L14.4341 79.6875H13.7969C13.2305 79.6875 12.7617 79.7754 12.3906 79.9512C12.0146 80.1221 11.7339 80.3589 11.5483 80.6616C11.3628 80.9644 11.27 81.3135 11.27 81.709C11.27 82.1045 11.3677 82.4585 11.563 82.771C11.7534 83.0786 12.0366 83.3228 12.4126 83.5034C12.7886 83.6792 13.25 83.7671 13.7969 83.7671H14.4341C14.9565 83.7671 15.4033 83.6792 15.7744 83.5034C16.1455 83.3276 16.4287 83.0786 16.624 82.7563C16.8193 82.4292 16.917 82.0435 16.917 81.5991C16.917 81.2573 16.8706 80.9644 16.7778 80.7202C16.6802 80.4712 16.5605 80.2686 16.4189 80.1123C16.2773 79.9512 16.1382 79.8413 16.0015 79.7827L15.9429 79.7534V78.2153L16.0088 78.23C16.2725 78.2983 16.5361 78.418 16.7998 78.5889C17.0586 78.7598 17.2954 78.9868 17.5103 79.27C17.7251 79.5483 17.8984 79.8853 18.0303 80.2808C18.1621 80.6714 18.228 81.123 18.228 81.6357Z" fill="white"/>
<path d="M18.0742 92.959H7L7 91.3696H18.0742V92.959ZM18.0742 87.9492L14.3462 90.8057L13.3574 89.6265L18.0742 86.0083V87.9492ZM15.3423 91.5234L13.4673 91.5894V91.2451L10.1201 88.0957V86.228L13.7529 89.8169L14.2583 90.4321L15.3423 91.5234Z" fill="white"/>
<path d="M18.2061 99.3311C18.2061 99.834 18.1108 100.286 17.9204 100.686C17.7251 101.082 17.4492 101.394 17.0928 101.624C16.7363 101.853 16.3188 101.968 15.8403 101.968H15.8257C15.3472 101.968 14.9395 101.853 14.6025 101.624C14.2656 101.389 14.002 101.052 13.8115 100.613C13.6162 100.168 13.499 99.6313 13.46 99.0015L13.2842 96.0645H14.4048L14.5806 98.7817C14.6147 99.3286 14.7319 99.7314 14.9321 99.9902C15.1274 100.249 15.4033 100.378 15.7598 100.378H15.7744C16.1357 100.378 16.4214 100.239 16.6313 99.9609C16.8364 99.6826 16.939 99.3311 16.939 98.9062C16.939 98.5107 16.8608 98.1592 16.7046 97.8516C16.5435 97.5391 16.3286 97.2949 16.0601 97.1191C15.7866 96.9434 15.479 96.8555 15.1372 96.8555H12.6323C12.1929 96.8555 11.8584 96.9922 11.6289 97.2656C11.3945 97.5342 11.2773 97.9346 11.2773 98.4668C11.2773 98.9111 11.3555 99.2749 11.5117 99.5581C11.668 99.8364 11.8877 100.022 12.1709 100.115L12.1929 100.129V101.66L12.1416 101.653C11.7021 101.589 11.3213 101.416 10.999 101.133C10.6719 100.845 10.418 100.469 10.2373 100.005C10.0566 99.5361 9.96631 99.0015 9.96631 98.4009C9.96631 97.7319 10.0737 97.1655 10.2886 96.7017C10.4985 96.2329 10.8037 95.8789 11.2041 95.6396C11.5996 95.3955 12.0757 95.2734 12.6323 95.2734H18.0742V96.8555H16.9463V96.9727C17.2148 97.1289 17.4443 97.3242 17.6348 97.5586C17.8203 97.793 17.9619 98.0591 18.0596 98.3569C18.1572 98.6548 18.2061 98.9795 18.2061 99.3311Z" fill="white"/>
<path d="M18.0742 114.917H10.1201V113.328H11.3433V113.203C10.9038 113.027 10.5645 112.754 10.3252 112.383C10.0859 112.007 9.96631 111.558 9.96631 111.035C9.96631 110.674 10.0249 110.349 10.1421 110.061C10.2593 109.773 10.4253 109.526 10.6401 109.321C10.8501 109.111 11.0991 108.948 11.3872 108.831V108.706C11.0991 108.574 10.8501 108.389 10.6401 108.149C10.4253 107.91 10.2593 107.632 10.1421 107.314C10.0249 106.992 9.96631 106.65 9.96631 106.289C9.96631 105.752 10.0713 105.293 10.2812 104.912C10.4863 104.531 10.7842 104.241 11.1748 104.041C11.5654 103.84 12.0366 103.74 12.5884 103.74H18.0742V105.33H12.9692C12.603 105.33 12.3003 105.386 12.061 105.498C11.8169 105.61 11.6338 105.781 11.5117 106.011C11.3896 106.235 11.3286 106.519 11.3286 106.86C11.3286 107.197 11.4067 107.493 11.563 107.747C11.7144 107.996 11.9194 108.191 12.1782 108.333C12.4321 108.469 12.7202 108.538 13.0425 108.538H18.0742V110.127H12.8081C12.5054 110.127 12.2441 110.19 12.0244 110.317C11.7998 110.439 11.6289 110.615 11.5117 110.845C11.3896 111.074 11.3286 111.345 11.3286 111.658C11.3286 111.975 11.4116 112.261 11.5776 112.515C11.7437 112.764 11.9683 112.961 12.2515 113.108C12.5298 113.254 12.8423 113.328 13.189 113.328H18.0742V114.917Z" fill="white"/>
<path d="M18.228 124.395C18.228 125.171 18.062 125.837 17.73 126.394C17.3931 126.951 16.917 127.38 16.3018 127.683C15.6865 127.981 14.959 128.13 14.1191 128.13H14.1118C13.2817 128.13 12.5566 127.981 11.9365 127.683C11.3164 127.38 10.833 126.956 10.4863 126.409C10.1396 125.857 9.96631 125.212 9.96631 124.475C9.96631 123.733 10.1323 123.096 10.4644 122.563C10.7964 122.026 11.2627 121.614 11.8633 121.326C12.459 121.038 13.1572 120.894 13.958 120.894H14.5146V127.324H13.3794V121.685L14.4341 122.446H13.7969C13.2305 122.446 12.7617 122.534 12.3906 122.71C12.0146 122.881 11.7339 123.118 11.5483 123.42C11.3628 123.723 11.27 124.072 11.27 124.468C11.27 124.863 11.3677 125.217 11.563 125.53C11.7534 125.837 12.0366 126.082 12.4126 126.262C12.7886 126.438 13.25 126.526 13.7969 126.526H14.4341C14.9565 126.526 15.4033 126.438 15.7744 126.262C16.1455 126.086 16.4287 125.837 16.624 125.515C16.8193 125.188 16.917 124.802 16.917 124.358C16.917 124.016 16.8706 123.723 16.7778 123.479C16.6802 123.23 16.5605 123.027 16.4189 122.871C16.2773 122.71 16.1382 122.6 16.0015 122.542L15.9429 122.512V120.974L16.0088 120.989C16.2725 121.057 16.5361 121.177 16.7998 121.348C17.0586 121.519 17.2954 121.746 17.5103 122.029C17.7251 122.307 17.8984 122.644 18.0303 123.04C18.1621 123.43 18.228 123.882 18.228 124.395Z" fill="white"/>
<path d="M18.0742 141.138H10.1201V139.548H11.3433V139.424C10.9038 139.248 10.5645 138.975 10.3252 138.604C10.0859 138.228 9.96631 137.778 9.96631 137.256C9.96631 136.895 10.0249 136.57 10.1421 136.282C10.2593 135.994 10.4253 135.747 10.6401 135.542C10.8501 135.332 11.0991 135.168 11.3872 135.051V134.927C11.0991 134.795 10.8501 134.609 10.6401 134.37C10.4253 134.131 10.2593 133.853 10.1421 133.535C10.0249 133.213 9.96631 132.871 9.96631 132.51C9.96631 131.973 10.0713 131.514 10.2812 131.133C10.4863 130.752 10.7842 130.461 11.1748 130.261C11.5654 130.061 12.0366 129.961 12.5884 129.961H18.0742V131.55H12.9692C12.603 131.55 12.3003 131.606 12.061 131.719C11.8169 131.831 11.6338 132.002 11.5117 132.231C11.3896 132.456 11.3286 132.739 11.3286 133.081C11.3286 133.418 11.4067 133.713 11.563 133.967C11.7144 134.216 11.9194 134.412 12.1782 134.553C12.4321 134.69 12.7202 134.758 13.0425 134.758H18.0742V136.348H12.8081C12.5054 136.348 12.2441 136.411 12.0244 136.538C11.7998 136.66 11.6289 136.836 11.5117 137.065C11.3896 137.295 11.3286 137.566 11.3286 137.878C11.3286 138.196 11.4116 138.481 11.5776 138.735C11.7437 138.984 11.9683 139.182 12.2515 139.329C12.5298 139.475 12.8423 139.548 13.189 139.548H18.0742V141.138Z" fill="white"/>
<path d="M18.228 146.792C18.228 147.568 18.062 148.24 17.73 148.806C17.3979 149.368 16.9243 149.8 16.3091 150.103C15.689 150.405 14.9541 150.557 14.1045 150.557H14.0898C13.2354 150.557 12.5005 150.405 11.8853 150.103C11.27 149.795 10.7964 149.36 10.4644 148.799C10.1323 148.232 9.96631 147.563 9.96631 146.792C9.96631 146.016 10.1323 145.347 10.4644 144.785C10.7915 144.224 11.2651 143.792 11.8853 143.489C12.5005 143.181 13.2354 143.027 14.0898 143.027H14.1045C14.9541 143.027 15.689 143.181 16.3091 143.489C16.9243 143.792 17.3979 144.224 17.73 144.785C18.062 145.342 18.228 146.011 18.228 146.792ZM16.895 146.792C16.895 146.338 16.7852 145.952 16.5654 145.635C16.3408 145.317 16.021 145.076 15.606 144.91C15.1909 144.744 14.6904 144.661 14.1045 144.661H14.0898C13.499 144.661 12.9961 144.744 12.5811 144.91C12.166 145.076 11.8486 145.317 11.6289 145.635C11.4043 145.952 11.292 146.338 11.292 146.792C11.292 147.246 11.4043 147.632 11.6289 147.949C11.8486 148.267 12.166 148.511 12.5811 148.682C12.9961 148.848 13.499 148.931 14.0898 148.931H14.1045C14.6904 148.931 15.1909 148.848 15.606 148.682C16.021 148.511 16.3408 148.267 16.5654 147.949C16.7852 147.632 16.895 147.246 16.895 146.792Z" fill="white"/>
<path d="M18.3306 156.526C18.3306 157.502 18.106 158.35 17.6567 159.067C17.2075 159.78 16.5703 160.33 15.7451 160.715C14.9199 161.101 13.9385 161.294 12.8008 161.294H12.7861C11.6436 161.294 10.6597 161.101 9.83447 160.715C9.00928 160.33 8.37207 159.78 7.92285 159.067C7.47363 158.354 7.24902 157.507 7.24902 156.526C7.24902 155.75 7.40283 155.049 7.71045 154.424C8.01318 153.794 8.43311 153.279 8.97021 152.878C9.50732 152.473 10.125 152.227 10.8232 152.139H10.8672V153.772L10.8379 153.779C10.4033 153.877 10.0273 154.055 9.70996 154.314C9.39258 154.573 9.146 154.89 8.97021 155.266C8.79443 155.642 8.70654 156.062 8.70654 156.526C8.70654 157.156 8.87256 157.703 9.20459 158.167C9.53662 158.625 10.0078 158.982 10.6182 159.236C11.2236 159.485 11.9463 159.609 12.7861 159.609H12.8008C13.6309 159.609 14.3511 159.485 14.9614 159.236C15.5718 158.982 16.043 158.625 16.375 158.167C16.707 157.703 16.873 157.153 16.873 156.519C16.873 156.055 16.7949 155.635 16.6387 155.259C16.4824 154.878 16.2603 154.561 15.9722 154.307C15.6792 154.053 15.335 153.879 14.9395 153.787L14.9102 153.772V152.131L14.9468 152.139C15.6255 152.241 16.2188 152.49 16.7266 152.886C17.2344 153.281 17.6299 153.789 17.9131 154.409C18.1914 155.029 18.3306 155.735 18.3306 156.526Z" fill="white"/>
<path d="M1.19048 172H0V173.19H1.19048V172Z" fill="white"/>
<path d="M1.19048 173.19H0V174.381H1.19048V173.19Z" fill="white"/>
<path d="M1.19048 174.381H0V175.571H1.19048V174.381Z" fill="white"/>
<path d="M1.19048 175.571H0V176.762H1.19048V175.571Z" fill="white"/>
<path d="M1.19048 176.762H0V177.952H1.19048V176.762Z" fill="white"/>
<path d="M1.19048 177.952H0V179.143H1.19048V177.952Z" fill="white"/>
<path d="M1.19048 179.143H0V180.333H1.19048V179.143Z" fill="white"/>
<path d="M1.19048 181.524H0V182.714H1.19048V181.524Z" fill="white"/>
<path d="M1.19048 185.095H0V186.286H1.19048V185.095Z" fill="white"/>
<path d="M1.19048 188.667H0V189.857H1.19048V188.667Z" fill="white"/>
<path d="M1.19048 189.857H0V191.048H1.19048V189.857Z" fill="white"/>
<path d="M1.19048 191.048H0V192.238H1.19048V191.048Z" fill="white"/>
<path d="M1.19048 192.238H0V193.429H1.19048V192.238Z" fill="white"/>
<path d="M1.19048 193.429H0V194.619H1.19048V193.429Z" fill="white"/>
<path d="M1.19048 194.619H0V195.809H1.19048V194.619Z" fill="white"/>
<path d="M1.19048 195.81H0V197H1.19048V195.81Z" fill="white"/>
<path d="M2.38091 172H1.19043V173.19H2.38091V172Z" fill="white"/>
<path d="M2.38091 179.143H1.19043V180.333H2.38091V179.143Z" fill="white"/>
<path d="M2.38091 181.524H1.19043V182.714H2.38091V181.524Z" fill="white"/>
<path d="M2.38091 182.714H1.19043V183.905H2.38091V182.714Z" fill="white"/>
<path d="M2.38091 183.905H1.19043V185.095H2.38091V183.905Z" fill="white"/>
<path d="M2.38091 188.667H1.19043V189.857H2.38091V188.667Z" fill="white"/>
<path d="M2.38091 195.81H1.19043V197H2.38091V195.81Z" fill="white"/>
<path d="M3.57134 172H2.38086V173.19H3.57134V172Z" fill="white"/>
<path d="M3.57134 174.381H2.38086V175.571H3.57134V174.381Z" fill="white"/>
<path d="M3.57134 175.571H2.38086V176.762H3.57134V175.571Z" fill="white"/>
<path d="M3.57134 176.762H2.38086V177.952H3.57134V176.762Z" fill="white"/>
<path d="M3.57134 179.143H2.38086V180.333H3.57134V179.143Z" fill="white"/>
<path d="M3.57134 185.095H2.38086V186.286H3.57134V185.095Z" fill="white"/>
<path d="M3.57134 188.667H2.38086V189.857H3.57134V188.667Z" fill="white"/>
<path d="M3.57134 191.048H2.38086V192.238H3.57134V191.048Z" fill="white"/>
<path d="M3.57134 192.238H2.38086V193.429H3.57134V192.238Z" fill="white"/>
<path d="M3.57134 193.429H2.38086V194.619H3.57134V193.429Z" fill="white"/>
<path d="M3.57134 195.81H2.38086V197H3.57134V195.81Z" fill="white"/>
<path d="M4.76177 172H3.57129V173.19H4.76177V172Z" fill="white"/>
<path d="M4.76177 174.381H3.57129V175.571H4.76177V174.381Z" fill="white"/>
<path d="M4.76177 175.571H3.57129V176.762H4.76177V175.571Z" fill="white"/>
<path d="M4.76177 176.762H3.57129V177.952H4.76177V176.762Z" fill="white"/>
<path d="M4.76177 179.143H3.57129V180.333H4.76177V179.143Z" fill="white"/>
<path d="M4.76177 181.524H3.57129V182.714H4.76177V181.524Z" fill="white"/>
<path d="M4.76177 188.667H3.57129V189.857H4.76177V188.667Z" fill="white"/>
<path d="M4.76177 191.048H3.57129V192.238H4.76177V191.048Z" fill="white"/>
<path d="M4.76177 192.238H3.57129V193.429H4.76177V192.238Z" fill="white"/>
<path d="M4.76177 193.429H3.57129V194.619H4.76177V193.429Z" fill="white"/>
<path d="M4.76177 195.81H3.57129V197H4.76177V195.81Z" fill="white"/>
<path d="M5.95244 172H4.76196V173.19H5.95244V172Z" fill="white"/>
<path d="M5.95244 174.381H4.76196V175.571H5.95244V174.381Z" fill="white"/>
<path d="M5.95244 175.571H4.76196V176.762H5.95244V175.571Z" fill="white"/>
<path d="M5.95244 176.762H4.76196V177.952H5.95244V176.762Z" fill="white"/>
<path d="M5.95244 179.143H4.76196V180.333H5.95244V179.143Z" fill="white"/>
<path d="M5.95244 181.524H4.76196V182.714H5.95244V181.524Z" fill="white"/>
<path d="M5.95244 182.714H4.76196V183.905H5.95244V182.714Z" fill="white"/>
<path d="M5.95244 183.905H4.76196V185.095H5.95244V183.905Z" fill="white"/>
<path d="M5.95244 185.095H4.76196V186.286H5.95244V185.095Z" fill="white"/>
<path d="M5.95244 186.286H4.76196V187.476H5.95244V186.286Z" fill="white"/>
<path d="M5.95244 188.667H4.76196V189.857H5.95244V188.667Z" fill="white"/>
<path d="M5.95244 191.048H4.76196V192.238H5.95244V191.048Z" fill="white"/>
<path d="M5.95244 192.238H4.76196V193.429H5.95244V192.238Z" fill="white"/>
<path d="M5.95244 193.429H4.76196V194.619H5.95244V193.429Z" fill="white"/>
<path d="M5.95244 195.81H4.76196V197H5.95244V195.81Z" fill="white"/>
<path d="M7.14287 172H5.95239V173.19H7.14287V172Z" fill="white"/>
<path d="M7.14287 179.143H5.95239V180.333H7.14287V179.143Z" fill="white"/>
<path d="M7.14287 182.714H5.95239V183.905H7.14287V182.714Z" fill="white"/>
<path d="M7.14287 183.905H5.95239V185.095H7.14287V183.905Z" fill="white"/>
<path d="M7.14287 186.286H5.95239V187.476H7.14287V186.286Z" fill="white"/>
<path d="M7.14287 188.667H5.95239V189.857H7.14287V188.667Z" fill="white"/>
<path d="M7.14287 195.81H5.95239V197H7.14287V195.81Z" fill="white"/>
<path d="M8.3333 172H7.14282V173.19H8.3333V172Z" fill="white"/>
<path d="M8.3333 173.19H7.14282V174.381H8.3333V173.19Z" fill="white"/>
<path d="M8.3333 174.381H7.14282V175.571H8.3333V174.381Z" fill="white"/>
<path d="M8.3333 175.571H7.14282V176.762H8.3333V175.571Z" fill="white"/>
<path d="M8.3333 176.762H7.14282V177.952H8.3333V176.762Z" fill="white"/>
<path d="M8.3333 177.952H7.14282V179.143H8.3333V177.952Z" fill="white"/>
<path d="M8.3333 179.143H7.14282V180.333H8.3333V179.143Z" fill="white"/>
<path d="M8.3333 181.524H7.14282V182.714H8.3333V181.524Z" fill="white"/>
<path d="M8.3333 183.905H7.14282V185.095H8.3333V183.905Z" fill="white"/>
<path d="M8.3333 186.286H7.14282V187.476H8.3333V186.286Z" fill="white"/>
<path d="M8.3333 188.667H7.14282V189.857H8.3333V188.667Z" fill="white"/>
<path d="M8.3333 189.857H7.14282V191.048H8.3333V189.857Z" fill="white"/>
<path d="M8.3333 191.048H7.14282V192.238H8.3333V191.048Z" fill="white"/>
<path d="M8.3333 192.238H7.14282V193.429H8.3333V192.238Z" fill="white"/>
<path d="M8.3333 193.429H7.14282V194.619H8.3333V193.429Z" fill="white"/>
<path d="M8.3333 194.619H7.14282V195.809H8.3333V194.619Z" fill="white"/>
<path d="M8.3333 195.81H7.14282V197H8.3333V195.81Z" fill="white"/>
<path d="M9.52373 182.714H8.33325V183.905H9.52373V182.714Z" fill="white"/>
<path d="M9.52373 183.905H8.33325V185.095H9.52373V183.905Z" fill="white"/>
<path d="M9.52373 186.286H8.33325V187.476H9.52373V186.286Z" fill="white"/>
<path d="M10.7142 172H9.52368V173.19H10.7142V172Z" fill="white"/>
<path d="M10.7142 179.143H9.52368V180.333H10.7142V179.143Z" fill="white"/>
<path d="M10.7142 180.333H9.52368V181.524H10.7142V180.333Z" fill="white"/>
<path d="M10.7142 183.905H9.52368V185.095H10.7142V183.905Z" fill="white"/>
<path d="M10.7142 185.095H9.52368V186.286H10.7142V185.095Z" fill="white"/>
<path d="M10.7142 187.476H9.52368V188.667H10.7142V187.476Z" fill="white"/>
<path d="M10.7142 191.048H9.52368V192.238H10.7142V191.048Z" fill="white"/>
<path d="M10.7142 192.238H9.52368V193.429H10.7142V192.238Z" fill="white"/>
<path d="M10.7142 194.619H9.52368V195.809H10.7142V194.619Z" fill="white"/>
<path d="M10.7142 195.81H9.52368V197H10.7142V195.81Z" fill="white"/>
<path d="M11.9048 172H10.7144V173.19H11.9048V172Z" fill="white"/>
<path d="M11.9048 173.19H10.7144V174.381H11.9048V173.19Z" fill="white"/>
<path d="M11.9048 174.381H10.7144V175.571H11.9048V174.381Z" fill="white"/>
<path d="M11.9048 175.571H10.7144V176.762H11.9048V175.571Z" fill="white"/>
<path d="M11.9048 180.333H10.7144V181.524H11.9048V180.333Z" fill="white"/>
<path d="M11.9048 181.524H10.7144V182.714H11.9048V181.524Z" fill="white"/>
<path d="M11.9048 183.905H10.7144V185.095H11.9048V183.905Z" fill="white"/>
<path d="M11.9048 187.476H10.7144V188.667H11.9048V187.476Z" fill="white"/>
<path d="M11.9048 189.857H10.7144V191.048H11.9048V189.857Z" fill="white"/>
<path d="M11.9048 191.048H10.7144V192.238H11.9048V191.048Z" fill="white"/>
<path d="M11.9048 193.429H10.7144V194.619H11.9048V193.429Z" fill="white"/>
<path d="M11.9048 195.81H10.7144V197H11.9048V195.81Z" fill="white"/>
<path d="M13.0953 172H11.9048V173.19H13.0953V172Z" fill="white"/>
<path d="M13.0953 174.381H11.9048V175.571H13.0953V174.381Z" fill="white"/>
<path d="M13.0953 175.571H11.9048V176.762H13.0953V175.571Z" fill="white"/>
<path d="M13.0953 176.762H11.9048V177.952H13.0953V176.762Z" fill="white"/>
<path d="M13.0953 179.143H11.9048V180.333H13.0953V179.143Z" fill="white"/>
<path d="M13.0953 180.333H11.9048V181.524H13.0953V180.333Z" fill="white"/>
<path d="M13.0953 181.524H11.9048V182.714H13.0953V181.524Z" fill="white"/>
<path d="M13.0953 182.714H11.9048V183.905H13.0953V182.714Z" fill="white"/>
<path d="M13.0953 183.905H11.9048V185.095H13.0953V183.905Z" fill="white"/>
<path d="M13.0953 186.286H11.9048V187.476H13.0953V186.286Z" fill="white"/>
<path d="M13.0953 192.238H11.9048V193.429H13.0953V192.238Z" fill="white"/>
<path d="M13.0953 195.81H11.9048V197H13.0953V195.81Z" fill="white"/>
<path d="M14.2857 172H13.0952V173.19H14.2857V172Z" fill="white"/>
<path d="M14.2857 173.19H13.0952V174.381H14.2857V173.19Z" fill="white"/>
<path d="M14.2857 175.571H13.0952V176.762H14.2857V175.571Z" fill="white"/>
<path d="M14.2857 177.952H13.0952V179.143H14.2857V177.952Z" fill="white"/>
<path d="M14.2857 180.333H13.0952V181.524H14.2857V180.333Z" fill="white"/>
<path d="M14.2857 185.095H13.0952V186.286H14.2857V185.095Z" fill="white"/>
<path d="M14.2857 187.476H13.0952V188.667H14.2857V187.476Z" fill="white"/>
<path d="M14.2857 189.857H13.0952V191.048H14.2857V189.857Z" fill="white"/>
<path d="M14.2857 191.048H13.0952V192.238H14.2857V191.048Z" fill="white"/>
<path d="M14.2857 192.238H13.0952V193.429H14.2857V192.238Z" fill="white"/>
<path d="M14.2857 195.81H13.0952V197H14.2857V195.81Z" fill="white"/>
<path d="M15.4761 172H14.2856V173.19H15.4761V172Z" fill="white"/>
<path d="M15.4761 176.762H14.2856V177.952H15.4761V176.762Z" fill="white"/>
<path d="M15.4761 177.952H14.2856V179.143H15.4761V177.952Z" fill="white"/>
<path d="M15.4761 179.143H14.2856V180.333H15.4761V179.143Z" fill="white"/>
<path d="M15.4761 180.333H14.2856V181.524H15.4761V180.333Z" fill="white"/>
<path d="M15.4761 181.524H14.2856V182.714H15.4761V181.524Z" fill="white"/>
<path d="M15.4761 182.714H14.2856V183.905H15.4761V182.714Z" fill="white"/>
<path d="M15.4761 187.476H14.2856V188.667H15.4761V187.476Z" fill="white"/>
<path d="M15.4761 188.667H14.2856V189.857H15.4761V188.667Z" fill="white"/>
<path d="M15.4761 189.857H14.2856V191.048H15.4761V189.857Z" fill="white"/>
<path d="M15.4761 191.048H14.2856V192.238H15.4761V191.048Z" fill="white"/>
<path d="M15.4761 192.238H14.2856V193.429H15.4761V192.238Z" fill="white"/>
<path d="M16.6668 183.905H15.4763V185.095H16.6668V183.905Z" fill="white"/>
<path d="M16.6668 188.667H15.4763V189.857H16.6668V188.667Z" fill="white"/>
<path d="M16.6668 189.857H15.4763V191.048H16.6668V189.857Z" fill="white"/>
<path d="M16.6668 194.619H15.4763V195.809H16.6668V194.619Z" fill="white"/>
<path d="M17.8572 172H16.6667V173.19H17.8572V172Z" fill="white"/>
<path d="M17.8572 173.19H16.6667V174.381H17.8572V173.19Z" fill="white"/>
<path d="M17.8572 174.381H16.6667V175.571H17.8572V174.381Z" fill="white"/>
<path d="M17.8572 175.571H16.6667V176.762H17.8572V175.571Z" fill="white"/>
<path d="M17.8572 176.762H16.6667V177.952H17.8572V176.762Z" fill="white"/>
<path d="M17.8572 177.952H16.6667V179.143H17.8572V177.952Z" fill="white"/>
<path d="M17.8572 179.143H16.6667V180.333H17.8572V179.143Z" fill="white"/>
<path d="M17.8572 181.524H16.6667V182.714H17.8572V181.524Z" fill="white"/>
<path d="M17.8572 182.714H16.6667V183.905H17.8572V182.714Z" fill="white"/>
<path d="M17.8572 183.905H16.6667V185.095H17.8572V183.905Z" fill="white"/>
<path d="M17.8572 186.286H16.6667V187.476H17.8572V186.286Z" fill="white"/>
<path d="M17.8572 188.667H16.6667V189.857H17.8572V188.667Z" fill="white"/>
<path d="M17.8572 191.048H16.6667V192.238H17.8572V191.048Z" fill="white"/>
<path d="M17.8572 193.429H16.6667V194.619H17.8572V193.429Z" fill="white"/>
<path d="M17.8572 194.619H16.6667V195.809H17.8572V194.619Z" fill="white"/>
<path d="M19.0477 172H17.8572V173.19H19.0477V172Z" fill="white"/>
<path d="M19.0477 179.143H17.8572V180.333H19.0477V179.143Z" fill="white"/>
<path d="M19.0477 188.667H17.8572V189.857H19.0477V188.667Z" fill="white"/>
<path d="M19.0477 191.048H17.8572V192.238H19.0477V191.048Z" fill="white"/>
<path d="M19.0477 192.238H17.8572V193.429H19.0477V192.238Z" fill="white"/>
<path d="M19.0477 195.81H17.8572V197H19.0477V195.81Z" fill="white"/>
<path d="M20.2381 172H19.0476V173.19H20.2381V172Z" fill="white"/>
<path d="M20.2381 174.381H19.0476V175.571H20.2381V174.381Z" fill="white"/>
<path d="M20.2381 175.571H19.0476V176.762H20.2381V175.571Z" fill="white"/>
<path d="M20.2381 176.762H19.0476V177.952H20.2381V176.762Z" fill="white"/>
<path d="M20.2381 179.143H19.0476V180.333H20.2381V179.143Z" fill="white"/>
<path d="M20.2381 182.714H19.0476V183.905H20.2381V182.714Z" fill="white"/>
<path d="M20.2381 183.905H19.0476V185.095H20.2381V183.905Z" fill="white"/>
<path d="M20.2381 188.667H19.0476V189.857H20.2381V188.667Z" fill="white"/>
<path d="M20.2381 189.857H19.0476V191.048H20.2381V189.857Z" fill="white"/>
<path d="M20.2381 193.429H19.0476V194.619H20.2381V193.429Z" fill="white"/>
<path d="M20.2381 195.81H19.0476V197H20.2381V195.81Z" fill="white"/>
<path d="M21.4285 172H20.238V173.19H21.4285V172Z" fill="white"/>
<path d="M21.4285 174.381H20.238V175.571H21.4285V174.381Z" fill="white"/>
<path d="M21.4285 175.571H20.238V176.762H21.4285V175.571Z" fill="white"/>
<path d="M21.4285 176.762H20.238V177.952H21.4285V176.762Z" fill="white"/>
<path d="M21.4285 179.143H20.238V180.333H21.4285V179.143Z" fill="white"/>
<path d="M21.4285 185.095H20.238V186.286H21.4285V185.095Z" fill="white"/>
<path d="M21.4285 186.286H20.238V187.476H21.4285V186.286Z" fill="white"/>
<path d="M21.4285 189.857H20.238V191.048H21.4285V189.857Z" fill="white"/>
<path d="M21.4285 191.048H20.238V192.238H21.4285V191.048Z" fill="white"/>
<path d="M21.4285 192.238H20.238V193.429H21.4285V192.238Z" fill="white"/>
<path d="M21.4285 194.619H20.238V195.809H21.4285V194.619Z" fill="white"/>
<path d="M21.4285 195.81H20.238V197H21.4285V195.81Z" fill="white"/>
<path d="M22.6192 172H21.4287V173.19H22.6192V172Z" fill="white"/>
<path d="M22.6192 174.381H21.4287V175.571H22.6192V174.381Z" fill="white"/>
<path d="M22.6192 175.571H21.4287V176.762H22.6192V175.571Z" fill="white"/>
<path d="M22.6192 176.762H21.4287V177.952H22.6192V176.762Z" fill="white"/>
<path d="M22.6192 179.143H21.4287V180.333H22.6192V179.143Z" fill="white"/>
<path d="M22.6192 183.905H21.4287V185.095H22.6192V183.905Z" fill="white"/>
<path d="M22.6192 185.095H21.4287V186.286H22.6192V185.095Z" fill="white"/>
<path d="M22.6192 187.476H21.4287V188.667H22.6192V187.476Z" fill="white"/>
<path d="M22.6192 188.667H21.4287V189.857H22.6192V188.667Z" fill="white"/>
<path d="M22.6192 189.857H21.4287V191.048H22.6192V189.857Z" fill="white"/>
<path d="M22.6192 192.238H21.4287V193.429H22.6192V192.238Z" fill="white"/>
<path d="M22.6192 193.429H21.4287V194.619H22.6192V193.429Z" fill="white"/>
<path d="M22.6192 194.619H21.4287V195.809H22.6192V194.619Z" fill="white"/>
<path d="M23.8096 172H22.6191V173.19H23.8096V172Z" fill="white"/>
<path d="M23.8096 179.143H22.6191V180.333H23.8096V179.143Z" fill="white"/>
<path d="M23.8096 182.714H22.6191V183.905H23.8096V182.714Z" fill="white"/>
<path d="M23.8096 183.905H22.6191V185.095H23.8096V183.905Z" fill="white"/>
<path d="M23.8096 185.095H22.6191V186.286H23.8096V185.095Z" fill="white"/>
<path d="M23.8096 187.476H22.6191V188.667H23.8096V187.476Z" fill="white"/>
<path d="M23.8096 191.048H22.6191V192.238H23.8096V191.048Z" fill="white"/>
<path d="M23.8096 193.429H22.6191V194.619H23.8096V193.429Z" fill="white"/>
<path d="M23.8096 194.619H22.6191V195.809H23.8096V194.619Z" fill="white"/>
<path d="M25 172H23.8096V173.19H25V172Z" fill="white"/>
<path d="M25 173.19H23.8096V174.381H25V173.19Z" fill="white"/>
<path d="M25 174.381H23.8096V175.571H25V174.381Z" fill="white"/>
<path d="M25 175.571H23.8096V176.762H25V175.571Z" fill="white"/>
<path d="M25 176.762H23.8096V177.952H25V176.762Z" fill="white"/>
<path d="M25 177.952H23.8096V179.143H25V177.952Z" fill="white"/>
<path d="M25 179.143H23.8096V180.333H25V179.143Z" fill="white"/>
<path d="M25 181.524H23.8096V182.714H25V181.524Z" fill="white"/>
<path d="M25 183.905H23.8096V185.095H25V183.905Z" fill="white"/>
<path d="M25 191.048H23.8096V192.238H25V191.048Z" fill="white"/>
<path d="M25 193.429H23.8096V194.619H25V193.429Z" fill="white"/>
<path d="M25 194.619H23.8096V195.809H25V194.619Z" fill="white"/>
</svg>
